# xmcd
#
# Track frame offsets:
#	150
#	19093
#	36383
#	46431
#	59426
#	76892
#	96669
#	114828
#	128755
#	153705
#	165183
#	172515
#	187569
#	220218
#	242323
#	261321
#	288212
#	315297
#	333162
#
# Disc length: 4734 seconds
#
# Revision: 1
# Processed by: cddbd v1.5.1PL2 Copyright (c) Steve Scherf et al.
# Submitted via: EasyCDDAExtractor 9.0.0.1
#
DISCID=ec127c13
DTITLE=Alice Cooper - Stadthalle Freiburg 18-10-91
DYEAR=1991
DGENRE=Hard Rock
TTITLE0=Under My Wheels
TTITLE1=Trash
TTITLE2=No More Mr Nice Guy
TTITLE3=Billion Dollar Babies
TTITLE4=Love's A Loaded Gun
TTITLE5=Bed Of Nails
TTITLE6=Eighteen
TTITLE7=Sick Things
TTITLE8=Feed My Frankenstein
TTITLE9=Cold Ethyl
TTITLE10=Only Women Bleed
TTITLE11=Wind-Up Toy
TTITLE12=Ballad Of Dwight Fry
TTITLE13=Poison
TTITLE14=Snakebite
TTITLE15=Go To Hell
TTITLE16=School's Out
TTITLE17=Hey Stoopid
TTITLE18=Elected
EXTD=
EXTT0=
EXTT1=
EXTT2=
EXTT3=
EXTT4=
EXTT5=
EXTT6=
EXTT7=
EXTT8=
EXTT9=
EXTT10=
EXTT11=
EXTT12=
EXTT13=
EXTT14=
EXTT15=
EXTT16=
EXTT17=
EXTT18=
PLAYORDER=
